<svg width="24" height="24" viewBox="0 0 24 24" fill="none" xmlns="http://www.w3.org/2000/svg">
<rect width="24" height="24" rx="4" fill="#F4F4F4"/>
<path d="M8.57109 12.4079C6.81938 12.4079 5.40421 13.8231 5.4301 15.5575C5.44736 16.6707 6.06002 17.6372 6.96176 18.1765C6.65543 17.7062 6.47422 17.1496 6.46559 16.5499C6.4397 14.8154 7.85488 13.4003 9.60658 13.4003C9.95175 13.4003 10.284 13.4564 10.5946 13.5556V10.0824C10.271 10.0349 9.9388 10.009 9.60658 10.009C9.58932 10.009 9.57638 10.009 9.55912 10.009V12.5632C9.24847 12.464 8.91625 12.4079 8.57109 12.4079Z" fill="#F00044"/>
<path d="M16.1431 1.99243H16.1172H15.2198C15.4787 3.29111 16.2078 4.42152 17.2261 5.18951C16.5573 4.30503 16.1518 3.20051 16.1431 1.99243Z" fill="#F00044"/>
<path d="M21.4241 7.27778C21.0833 7.27778 20.7554 7.24327 20.4318 7.18286L15.1249 7.86456L9.55913 21.9343C9.23554 21.9818 8.90332 22.0077 8.5711 22.0077C7.09552 22.0077 5.68898 21.5287 4.54562 20.6443C4.67506 20.7996 4.81313 20.9506 4.96413 21.0973C6.20673 22.3226 7.85488 23 9.6109 23C9.94312 23 10.2753 22.9741 10.5989 22.9267C11.9796 22.7239 13.2524 22.0896 14.2577 21.0973C15.4916 19.8763 16.1733 18.2583 16.182 16.5325L16.1172 8.85691C16.704 9.30993 17.3469 9.68961 18.0415 9.97869C19.1159 10.4317 20.2549 10.6647 21.4241 10.6647" fill="#F00044"/>
<path d="M4.95117 11.9203C6.18082 10.6993 7.81603 10.0219 9.55911 10.0089V9.08995C9.23552 9.04249 8.9033 9.0166 8.57108 9.0166C6.81074 9.0166 5.15827 9.69399 3.91568 10.9279C2.69466 12.1403 1.99571 13.7971 2.00002 15.5186C2.00002 17.2531 2.68603 18.8797 3.92431 20.1093C4.12278 20.3035 4.32556 20.4847 4.54129 20.6486C3.5662 19.488 3.03551 18.0383 3.0312 16.511C3.03551 14.7895 3.73015 13.1327 4.95117 11.9203Z" fill="#08FFF9"/>
<path d="M20.4318 7.18278V6.25946H20.4232C19.2237 6.25946 18.1192 5.86252 17.2304 5.18945C18.0027 6.20769 19.1331 6.93253 20.4318 7.18278Z" fill="#08FFF9"/>
<path d="M9.42968 19.6043C9.83957 19.6259 10.2322 19.5698 10.5946 19.4533C11.8458 19.0434 12.7476 17.8785 12.7476 16.5065L12.7519 11.3722V1.99235H15.2198C15.1551 1.66876 15.1206 1.34085 15.1163 1H11.7164V10.3755L11.7121 15.5098C11.7121 16.8819 10.8103 18.0468 9.55912 18.4567C9.1967 18.5775 8.80407 18.6336 8.39419 18.6077C7.87213 18.5775 7.38459 18.4222 6.96176 18.1719C7.49245 18.9917 8.39851 19.5483 9.42968 19.6043Z" fill="#08FFF9"/>
<path d="M9.55911 21.934C10.9398 21.7313 12.2126 21.097 13.2178 20.1047C14.4518 18.8836 15.1335 17.2657 15.1421 15.5399L15.1249 7.86429C15.7117 8.31732 16.3545 8.697 17.0492 8.98607C18.1235 9.4391 19.2625 9.67209 20.4318 9.67209V7.18259C19.1331 6.93235 18.0027 6.2075 17.2304 5.18927C16.2121 4.42128 15.4787 3.29087 15.2241 1.99219H12.7519V11.3677L12.7476 16.502C12.7476 17.874 11.8458 19.039 10.5946 19.4489C10.2322 19.5697 9.83956 19.6258 9.42967 19.5999C8.39418 19.5438 7.49244 18.9872 6.96175 18.1717C6.06001 17.6367 5.44735 16.666 5.43009 15.5528C5.4042 13.8184 6.81937 12.4032 8.57108 12.4032C8.91624 12.4032 9.24846 12.4593 9.55911 12.5585V10.0043C7.81603 10.0173 6.18082 10.6946 4.95117 11.9157C3.73015 13.128 3.0312 14.7848 3.03551 16.502C3.03551 18.0294 3.5662 19.4791 4.5456 20.6397C5.69327 21.5242 7.0955 22.0031 8.57108 22.0031C8.9033 22.0074 9.23552 21.9815 9.55911 21.934Z" fill="black"/>
</svg>
