<svg width="50" height="50" viewBox="0 0 50 50" fill="none" xmlns="http://www.w3.org/2000/svg">
<path d="M39.8438 6.25C41.5703 6.25 42.9688 7.64844 42.9688 9.375V40.3452C42.9688 42.0718 41.5703 43.4702 39.8438 43.4702H5.46875C3.74219 43.4702 2.34375 42.0718 2.34375 40.3452V9.375C2.34375 7.64844 3.74219 6.25 5.46875 6.25H39.8438Z" fill="#EDEBE9"/>
<path d="M5.46875 43.4702H39.8438C41.5703 43.4702 42.9688 42.0717 42.9688 40.3452V23.4375C35.5753 31.5263 23.0671 37.4771 2.34375 38.588V40.3452C2.34375 42.0717 3.74217 43.4702 5.46875 43.4702Z" fill="#BEAFA8"/>
<path d="M39.8438 48.4375C44.5899 48.4375 48.4375 44.5899 48.4375 39.8438C48.4375 35.0976 44.5899 31.25 39.8438 31.25C35.0976 31.25 31.25 35.0976 31.25 39.8438C31.25 44.5899 35.0976 48.4375 39.8438 48.4375Z" fill="#DAB08E"/>
<path d="M44.9934 32.9755C46.0719 34.4117 46.7187 36.1906 46.7187 38.1249C46.7187 42.8711 42.8712 46.7187 38.125 46.7187C36.1906 46.7187 34.4117 46.0718 32.9755 44.9932C34.5433 47.0809 37.0319 48.4374 39.8437 48.4374C44.5899 48.4374 48.4375 44.5899 48.4375 39.8437C48.4375 37.0319 47.081 34.5433 44.9934 32.9755Z" fill="#BEAFA8" fill-opacity="0.7"/>
<path d="M42.9688 14.0625H2.34375V9.375C2.34375 7.64911 3.74286 6.25 5.46875 6.25H39.8438C41.5696 6.25 42.9688 7.64911 42.9688 9.375V14.0625Z" fill="#817C84"/>
<path d="M9.375 10.1562C8.51205 10.1562 7.8125 9.4567 7.8125 8.59375V3.90625C7.8125 3.0433 8.51205 2.34375 9.375 2.34375C10.2379 2.34375 10.9375 3.0433 10.9375 3.90625V8.59375C10.9375 9.4567 10.2379 10.1562 9.375 10.1562Z" fill="#DAB08E"/>
<path d="M17.9688 10.1562C17.1058 10.1562 16.4062 9.4567 16.4062 8.59375V3.90625C16.4062 3.0433 17.1058 2.34375 17.9688 2.34375C18.8317 2.34375 19.5312 3.0433 19.5312 3.90625V8.59375C19.5312 9.4567 18.8317 10.1562 17.9688 10.1562Z" fill="#DAB08E"/>
<path d="M27.3438 10.1562C26.4808 10.1562 25.7812 9.4567 25.7812 8.59375V3.90625C25.7812 3.0433 26.4808 2.34375 27.3438 2.34375C28.2067 2.34375 28.9062 3.0433 28.9062 3.90625V8.59375C28.9062 9.4567 28.2067 10.1562 27.3438 10.1562Z" fill="#DAB08E"/>
<path d="M35.9375 10.1562C35.0745 10.1562 34.375 9.4567 34.375 8.59375V3.90625C34.375 3.0433 35.0746 2.34375 35.9375 2.34375C36.8004 2.34375 37.5 3.0433 37.5 3.90625V8.59375C37.5 9.4567 36.8004 10.1562 35.9375 10.1562Z" fill="#DAB08E"/>
<path d="M7.03125 17.9688H11.7188V22.6562H7.03125V17.9688Z" fill="#BEAFA8"/>
<path d="M15.625 17.9688H20.3125V22.6562H15.625V17.9688Z" fill="#BEAFA8"/>
<path d="M24.2188 17.9688H28.9062V22.6562H24.2188V17.9688Z" fill="#BEAFA8"/>
<path d="M32.8125 17.9688H37.5V22.6562H32.8125V17.9688Z" fill="#BEAFA8"/>
<path d="M7.03125 26.5625H11.7188V31.25H7.03125V26.5625Z" fill="#BEAFA8"/>
<path d="M15.625 26.5625H20.3125V31.25H15.625V26.5625Z" fill="#BEAFA8"/>
<path d="M24.2188 26.5625H28.9062V31.25H24.2188V26.5625Z" fill="#BEAFA8"/>
<path d="M32.8125 26.5625H37.5V31.25H32.8125V26.5625Z" fill="#BEAFA8"/>
<path d="M7.03125 35.1562H11.7188V39.8438H7.03125V35.1562Z" fill="#BEAFA8"/>
<path d="M15.625 35.1562H20.3125V39.8438H15.625V35.1562Z" fill="#BEAFA8"/>
<path d="M24.2188 35.1562H28.9062V39.8438H24.2188V35.1562Z" fill="#BEAFA8"/>
<path d="M43.75 31.3323V9.375C43.75 7.22122 41.9975 5.46875 39.8438 5.46875H38.2812V3.90625C38.2812 2.61383 37.2299 1.5625 35.9375 1.5625C34.6451 1.5625 33.5938 2.61383 33.5938 3.90625V5.46875H29.6875V3.90625C29.6875 2.61383 28.6362 1.5625 27.3438 1.5625C26.0513 1.5625 25 2.61383 25 3.90625V5.46875H20.3125V3.90625C20.3125 2.61383 19.2612 1.5625 17.9688 1.5625C16.6763 1.5625 15.625 2.61383 15.625 3.90625V5.46875H11.7188V3.90625C11.7188 2.61383 10.6674 1.5625 9.375 1.5625C8.08258 1.5625 7.03125 2.61383 7.03125 3.90625V5.46875H5.46875C3.31497 5.46875 1.5625 7.22122 1.5625 9.375V40.625C1.5625 42.7788 3.31497 44.5312 5.46875 44.5312H31.7371C33.3611 47.3288 36.3825 49.2188 39.8438 49.2188C45.0134 49.2188 49.2188 45.0134 49.2188 39.8438C49.2188 36.0692 46.9722 32.8171 43.75 31.3323ZM35.1562 3.90625C35.1562 3.47519 35.5064 3.125 35.9375 3.125C36.3686 3.125 36.7188 3.47519 36.7188 3.90625V8.59375C36.7188 9.02481 36.3686 9.375 35.9375 9.375C35.5064 9.375 35.1562 9.02481 35.1562 8.59375V3.90625ZM26.5625 3.90625C26.5625 3.47519 26.9127 3.125 27.3438 3.125C27.7748 3.125 28.125 3.47519 28.125 3.90625V8.59375C28.125 9.02481 27.7748 9.375 27.3438 9.375C26.9127 9.375 26.5625 9.02481 26.5625 8.59375V3.90625ZM17.1875 3.90625C17.1875 3.47519 17.5377 3.125 17.9688 3.125C18.3998 3.125 18.75 3.47519 18.75 3.90625V8.59375C18.75 9.02481 18.3998 9.375 17.9688 9.375C17.5377 9.375 17.1875 9.02481 17.1875 8.59375V3.90625ZM8.59375 3.90625C8.59375 3.47519 8.94394 3.125 9.375 3.125C9.80606 3.125 10.1562 3.47519 10.1562 3.90625V8.59375C10.1562 9.02481 9.80606 9.375 9.375 9.375C8.94394 9.375 8.59375 9.02481 8.59375 8.59375V3.90625ZM5.46875 7.03125H7.03125V8.59375C7.03125 9.88617 8.08258 10.9375 9.375 10.9375C10.6674 10.9375 11.7188 9.88617 11.7188 8.59375V7.03125H15.625V8.59375C15.625 9.88617 16.6763 10.9375 17.9688 10.9375C19.2612 10.9375 20.3125 9.88617 20.3125 8.59375V7.03125H25V8.59375C25 9.88617 26.0513 10.9375 27.3438 10.9375C28.6362 10.9375 29.6875 9.88617 29.6875 8.59375V7.03125H33.5938V8.59375C33.5938 9.88617 34.6451 10.9375 35.9375 10.9375C37.2299 10.9375 38.2812 9.88617 38.2812 8.59375V7.03125H39.8438C41.1362 7.03125 42.1875 8.08258 42.1875 9.375V13.2812H3.125V9.375C3.125 8.08258 4.17633 7.03125 5.46875 7.03125ZM5.46875 42.9688C4.17633 42.9688 3.125 41.9174 3.125 40.625V14.8438H42.1875V30.7772C41.4369 30.583 40.6543 30.4688 39.8438 30.4688C39.3103 30.4688 38.7906 30.5239 38.2812 30.6098V26.5625C38.2812 26.1307 37.9318 25.7812 37.5 25.7812H32.8125C32.3807 25.7812 32.0312 26.1307 32.0312 26.5625V31.25C32.0312 31.6818 32.3807 32.0312 32.8125 32.0312H34.6725C32.142 33.7118 30.4688 36.5847 30.4688 39.8438C30.4688 40.9407 30.6679 41.9896 31.0156 42.9688H5.46875ZM36.7188 30.4688H33.5938V27.3438H36.7188V30.4688ZM39.8438 47.6562C35.5362 47.6562 32.0312 44.1513 32.0312 39.8438C32.0312 35.5362 35.5362 32.0312 39.8438 32.0312C44.1513 32.0312 47.6562 35.5362 47.6562 39.8438C47.6562 44.1513 44.1513 47.6562 39.8438 47.6562Z" fill="#0A0812"/>
<path d="M40.625 38.498V33.5938H39.0625V38.498C38.5974 38.7686 38.2812 39.2668 38.2812 39.8438C38.2812 39.9229 38.2932 39.9987 38.3045 40.0746L35.4492 42.3584L36.4258 43.5791L39.2786 41.2968C39.4543 41.3652 39.6439 41.4062 39.8438 41.4062C40.7067 41.4062 41.4062 40.7067 41.4062 39.8438C41.4062 39.2668 41.0901 38.7686 40.625 38.498Z" fill="#0D0F23"/>
<path d="M11.7188 17.1875H7.03125C6.59943 17.1875 6.25 17.5369 6.25 17.9688V22.6562C6.25 23.0881 6.59943 23.4375 7.03125 23.4375H11.7188C12.1506 23.4375 12.5 23.0881 12.5 22.6562V17.9688C12.5 17.5369 12.1506 17.1875 11.7188 17.1875ZM10.9375 21.875H7.8125V18.75H10.9375V21.875Z" fill="#0D0F23"/>
<path d="M20.3125 17.1875H15.625C15.1932 17.1875 14.8438 17.5369 14.8438 17.9688V22.6562C14.8438 23.0881 15.1932 23.4375 15.625 23.4375H20.3125C20.7443 23.4375 21.0938 23.0881 21.0938 22.6562V17.9688C21.0938 17.5369 20.7443 17.1875 20.3125 17.1875ZM19.5312 21.875H16.4062V18.75H19.5312V21.875Z" fill="#0D0F23"/>
<path d="M28.9062 17.1875H24.2188C23.7869 17.1875 23.4375 17.5369 23.4375 17.9688V22.6562C23.4375 23.0881 23.7869 23.4375 24.2188 23.4375H28.9062C29.3381 23.4375 29.6875 23.0881 29.6875 22.6562V17.9688C29.6875 17.5369 29.3381 17.1875 28.9062 17.1875ZM28.125 21.875H25V18.75H28.125V21.875Z" fill="#0D0F23"/>
<path d="M32.8125 23.4375H37.5C37.9318 23.4375 38.2812 23.0881 38.2812 22.6562V17.9688C38.2812 17.5369 37.9318 17.1875 37.5 17.1875H32.8125C32.3807 17.1875 32.0312 17.5369 32.0312 17.9688V22.6562C32.0312 23.0881 32.3807 23.4375 32.8125 23.4375ZM33.5938 18.75H36.7188V21.875H33.5938V18.75Z" fill="#0D0F23"/>
<path d="M11.7188 25.7812H7.03125C6.59943 25.7812 6.25 26.1307 6.25 26.5625V31.25C6.25 31.6818 6.59943 32.0312 7.03125 32.0312H11.7188C12.1506 32.0312 12.5 31.6818 12.5 31.25V26.5625C12.5 26.1307 12.1506 25.7812 11.7188 25.7812ZM10.9375 30.4688H7.8125V27.3438H10.9375V30.4688Z" fill="#0D0F23"/>
<path d="M20.3125 25.7812H15.625C15.1932 25.7812 14.8438 26.1307 14.8438 26.5625V31.25C14.8438 31.6818 15.1932 32.0312 15.625 32.0312H20.3125C20.7443 32.0312 21.0938 31.6818 21.0938 31.25V26.5625C21.0938 26.1307 20.7443 25.7812 20.3125 25.7812ZM19.5312 30.4688H16.4062V27.3438H19.5312V30.4688Z" fill="#0D0F23"/>
<path d="M28.9062 25.7812H24.2188C23.7869 25.7812 23.4375 26.1307 23.4375 26.5625V31.25C23.4375 31.6818 23.7869 32.0312 24.2188 32.0312H28.9062C29.3381 32.0312 29.6875 31.6818 29.6875 31.25V26.5625C29.6875 26.1307 29.3381 25.7812 28.9062 25.7812ZM28.125 30.4688H25V27.3438H28.125V30.4688Z" fill="#0D0F23"/>
<path d="M11.7188 34.375H7.03125C6.59943 34.375 6.25 34.7244 6.25 35.1562V39.8438C6.25 40.2756 6.59943 40.625 7.03125 40.625H11.7188C12.1506 40.625 12.5 40.2756 12.5 39.8438V35.1562C12.5 34.7244 12.1506 34.375 11.7188 34.375ZM10.9375 39.0625H7.8125V35.9375H10.9375V39.0625Z" fill="#0D0F23"/>
<path d="M20.3125 34.375H15.625C15.1932 34.375 14.8438 34.7244 14.8438 35.1562V39.8438C14.8438 40.2756 15.1932 40.625 15.625 40.625H20.3125C20.7443 40.625 21.0938 40.2756 21.0938 39.8438V35.1562C21.0938 34.7244 20.7443 34.375 20.3125 34.375ZM19.5312 39.0625H16.4062V35.9375H19.5312V39.0625Z" fill="#0D0F23"/>
<path d="M28.9062 34.375H24.2188C23.7869 34.375 23.4375 34.7244 23.4375 35.1562V39.8438C23.4375 40.2756 23.7869 40.625 24.2188 40.625H28.9062C29.3381 40.625 29.6875 40.2756 29.6875 39.8438V35.1562C29.6875 34.7244 29.3381 34.375 28.9062 34.375ZM28.125 39.0625H25V35.9375H28.125V39.0625Z" fill="#0D0F23"/>
</svg>
