<svg width="50" height="50" viewBox="0 0 50 50" fill="none" xmlns="http://www.w3.org/2000/svg">
<g clip-path="url(#clip0)">
<rect width="50" height="50" rx="25" fill="#DAB08E"/>
<g clip-path="url(#clip1)">
<path d="M24.6722 28.1583C27.7164 28.1583 30.3524 27.0665 32.5062 24.9124C34.66 22.7586 35.7518 20.1233 35.7518 17.0788C35.7518 14.0354 34.66 11.3997 32.5058 9.24524C30.3517 7.09181 27.716 6 24.6722 6C21.6277 6 18.9924 7.09181 16.8386 9.24559C14.6848 11.3994 13.5927 14.035 13.5927 17.0788C13.5927 20.1233 14.6848 22.7589 16.839 24.9127C18.9931 27.0662 21.6288 28.1583 24.6722 28.1583V28.1583Z" fill="#604C4C"/>
<path d="M44.0585 41.3716C43.9963 40.4753 43.8707 39.4975 43.6857 38.465C43.499 37.4248 43.2586 36.4414 42.9709 35.5427C42.6736 34.6137 42.2693 33.6963 41.7695 32.8172C41.2508 31.9047 40.6416 31.1102 39.9579 30.4563C39.243 29.7723 38.3678 29.2224 37.3556 28.8213C36.347 28.4222 35.2292 28.2201 34.0335 28.2201C33.5639 28.2201 33.1098 28.4127 32.2328 28.9837C31.693 29.3357 31.0616 29.7429 30.3569 30.1931C29.7543 30.5771 28.938 30.9368 27.9297 31.2625C26.946 31.5808 25.9472 31.7422 24.9614 31.7422C23.9756 31.7422 22.9771 31.5808 21.9923 31.2625C20.9851 30.9371 20.1688 30.5774 19.5669 30.1935C18.8689 29.7474 18.2372 29.3403 17.6893 28.9834C16.8133 28.4124 16.3589 28.2197 15.8893 28.2197C14.6932 28.2197 13.5758 28.4222 12.5675 28.8216C11.5561 29.222 10.6805 29.772 9.96486 30.4567C9.28156 31.1109 8.67195 31.9051 8.15395 32.8172C7.65454 33.6963 7.25024 34.6133 6.95264 35.543C6.66521 36.4418 6.4248 37.4248 6.2381 38.465C6.05315 39.4961 5.92751 40.4742 5.86539 41.3727C5.80432 42.2528 5.77344 43.1664 5.77344 44.089C5.77344 46.4902 6.53676 48.4341 8.04199 49.8678C9.52863 51.2824 11.4957 52.0001 13.8878 52.0001H36.0371C38.4292 52.0001 40.3956 51.2828 41.8826 49.8678C43.3881 48.4352 44.1515 46.4909 44.1515 44.0887C44.1511 43.1618 44.1199 42.2476 44.0585 41.3716V41.3716Z" fill="#604C4C"/>
</g>
</g>
<defs>
<clipPath id="clip0">
<rect width="50" height="50" rx="25" fill="white"/>
</clipPath>
<clipPath id="clip1">
<rect width="46" height="46" fill="white" transform="translate(2 6)"/>
</clipPath>
</defs>
</svg>
