<svg width="253" height="25" viewBox="0 0 253 25" fill="none" xmlns="http://www.w3.org/2000/svg">
<path d="M0.832 19V16.894L1.768 16.816C2.21867 16.7813 2.444 16.5387 2.444 16.088V3.998L0.962 3.92V1.71H5.642L13 13.644H13.052V3.998L11.336 3.92V1.71H17.68V3.816L16.744 3.894C16.328 3.92867 16.12 4.19733 16.12 4.7V19H13.078L5.564 6.884H5.512V16.712L7.202 16.79V19H0.832ZM30.864 6.442V16.114C30.864 16.3913 30.9074 16.582 30.994 16.686C31.098 16.79 31.2714 16.8507 31.514 16.868L32.346 16.92V19H28.212V17.492L28.134 17.466C27.2674 18.714 26.08 19.338 24.572 19.338C22.804 19.338 21.4954 18.7747 20.646 17.648C19.7967 16.5213 19.372 14.9787 19.372 13.02C19.372 10.6627 19.944 8.82533 21.088 7.508C22.232 6.19067 23.948 5.532 26.236 5.532C27.7094 5.532 29.252 5.83533 30.864 6.442ZM27.848 14.866V8.132C27.3627 7.90667 26.6954 7.794 25.846 7.794C24.6847 7.794 23.844 8.262 23.324 9.198C22.804 10.134 22.544 11.3733 22.544 12.916C22.544 15.724 23.4454 17.128 25.248 17.128C26.0107 17.128 26.6347 16.9027 27.12 16.452C27.6054 15.984 27.848 15.4553 27.848 14.866ZM33.786 8.002V5.922H38.18V7.612C38.6307 6.97067 39.2287 6.468 39.974 6.104C40.7193 5.72267 41.5253 5.532 42.392 5.532C43.7093 5.532 44.7233 5.91333 45.434 6.676C46.162 7.42133 46.526 8.548 46.526 10.056V16.842L48.008 16.92V19H41.82V17.024L42.678 16.946C42.938 16.9113 43.1287 16.842 43.25 16.738C43.3713 16.6167 43.432 16.4 43.432 16.088V10.732C43.432 9.77867 43.2847 9.07667 42.99 8.626C42.6953 8.158 42.132 7.924 41.3 7.924C40.4853 7.924 39.8353 8.184 39.35 8.704C38.8647 9.224 38.622 9.83933 38.622 10.55V16.842L40.104 16.92V19H33.916V17.024L34.774 16.946C35.034 16.9113 35.2247 16.842 35.346 16.738C35.4673 16.6167 35.528 16.4 35.528 16.088V8.886C35.528 8.366 35.3113 8.09733 34.878 8.08L33.786 8.002ZM61.2058 6.442V16.114C61.2058 16.3913 61.2492 16.582 61.3358 16.686C61.4398 16.79 61.6132 16.8507 61.8558 16.868L62.6878 16.92V19H58.5538V17.492L58.4758 17.466C57.6092 18.714 56.4218 19.338 54.9138 19.338C53.1458 19.338 51.8372 18.7747 50.9878 17.648C50.1385 16.5213 49.7138 14.9787 49.7138 13.02C49.7138 10.6627 50.2858 8.82533 51.4298 7.508C52.5738 6.19067 54.2898 5.532 56.5778 5.532C58.0512 5.532 59.5938 5.83533 61.2058 6.442ZM58.1898 14.866V8.132C57.7045 7.90667 57.0372 7.794 56.1878 7.794C55.0265 7.794 54.1858 8.262 53.6658 9.198C53.1458 10.134 52.8858 11.3733 52.8858 12.916C52.8858 15.724 53.7872 17.128 55.5898 17.128C56.3525 17.128 56.9765 16.9027 57.4618 16.452C57.9472 15.984 58.1898 15.4553 58.1898 14.866ZM250.116 19.39C249.509 19.39 249.041 19.2253 248.712 18.896C248.382 18.5493 248.218 18.1073 248.218 17.57C248.218 17.0153 248.382 16.5647 248.712 16.218C249.058 15.854 249.518 15.672 250.09 15.672C250.679 15.672 251.147 15.8453 251.494 16.192C251.84 16.5213 252.014 16.9633 252.014 17.518C252.014 18.0553 251.849 18.506 251.52 18.87C251.19 19.2167 250.722 19.39 250.116 19.39Z" fill="#604C4C"/>
<path d="M81.8649 19H69.5149V16.894L70.3729 16.816C70.8755 16.764 71.1269 16.5213 71.1269 16.088V3.998L69.6449 3.92V1.71H81.5529V6.026L78.9009 6.208V5.168C78.9009 4.87333 78.8575 4.66533 78.7709 4.544C78.6842 4.42267 78.4762 4.362 78.1469 4.362H74.2989V8.808H80.3049V11.46H74.2989V16.322H78.4849C78.7969 16.322 78.9962 16.2613 79.0829 16.14C79.1695 16.0013 79.2129 15.7847 79.2129 15.49V14.19L81.8649 14.372V19ZM93.3264 18.506V16.53C92.3731 17.882 90.9691 18.558 89.1144 18.558C86.4277 18.558 85.0844 17.0587 85.0844 14.06V8.834C85.0844 8.366 84.8677 8.12333 84.4344 8.106L83.6024 8.054V5.922H88.1784V13.384C88.1784 14.3027 88.3084 14.996 88.5684 15.464C88.8284 15.932 89.3657 16.166 90.1804 16.166C90.9951 16.166 91.6451 15.9147 92.1304 15.412C92.6331 14.9093 92.8844 14.3027 92.8844 13.592V8.886C92.8844 8.59133 92.8324 8.392 92.7284 8.288C92.6417 8.16667 92.4771 8.106 92.2344 8.106L91.4024 8.054V5.922H95.9784V18.506C95.9784 20.6033 95.4671 22.1373 94.4444 23.108C93.4391 24.0787 91.9051 24.564 89.8424 24.564C87.7971 24.564 86.2024 24.278 85.0584 23.706V20.092L87.5284 19.884V21.132C87.5284 21.6 87.7451 21.912 88.1784 22.068C88.6117 22.2413 89.2097 22.328 89.9724 22.328C92.2084 22.328 93.3264 21.054 93.3264 18.506ZM105.189 5.532C106.489 5.532 107.52 5.85267 108.283 6.494C109.045 7.118 109.427 8.002 109.427 9.146C109.427 9.90867 109.262 10.5847 108.933 11.174C108.603 11.746 108.196 12.1967 107.711 12.526C107.225 12.8553 106.636 13.124 105.943 13.332C104.781 13.6787 103.473 13.852 102.017 13.852C102.069 14.7707 102.355 15.516 102.875 16.088C103.395 16.6427 104.192 16.92 105.267 16.92C106.341 16.92 107.416 16.5387 108.491 15.776L109.479 17.882C109.132 18.194 108.543 18.5147 107.711 18.844C106.896 19.1733 105.96 19.338 104.903 19.338C102.788 19.338 101.237 18.7573 100.249 17.596C99.2607 16.4173 98.7667 14.8053 98.7667 12.76C98.7667 10.7147 99.33 8.99867 100.457 7.612C101.583 6.22533 103.161 5.532 105.189 5.532ZM103.993 11.486C104.634 11.3647 105.223 11.1133 105.761 10.732C106.298 10.3333 106.567 9.86533 106.567 9.328C106.567 8.27067 106.047 7.742 105.007 7.742C104.036 7.742 103.291 8.132 102.771 8.912C102.251 9.67467 101.965 10.5933 101.913 11.668C102.675 11.6507 103.369 11.59 103.993 11.486ZM115.91 0.461998V16.842L117.392 16.92V19H111.204V17.024L112.062 16.946C112.565 16.894 112.816 16.6167 112.816 16.114V3.296C112.816 2.91467 112.6 2.70667 112.166 2.672L111.256 2.62V0.461998H115.91ZM130.675 6.442V16.114C130.675 16.3913 130.718 16.582 130.805 16.686C130.909 16.79 131.082 16.8507 131.325 16.868L132.157 16.92V19H128.023V17.492L127.945 17.466C127.078 18.714 125.891 19.338 124.383 19.338C122.615 19.338 121.306 18.7747 120.457 17.648C119.607 16.5213 119.183 14.9787 119.183 13.02C119.183 10.6627 119.755 8.82533 120.899 7.508C122.043 6.19067 123.759 5.532 126.047 5.532C127.52 5.532 129.063 5.83533 130.675 6.442ZM127.659 14.866V8.132C127.173 7.90667 126.506 7.794 125.657 7.794C124.495 7.794 123.655 8.262 123.135 9.198C122.615 10.134 122.355 11.3733 122.355 12.916C122.355 15.724 123.256 17.128 125.059 17.128C125.821 17.128 126.445 16.9027 126.931 16.452C127.416 15.984 127.659 15.4553 127.659 14.866ZM140.565 7.898C140.149 7.742 139.646 7.664 139.057 7.664C138.467 7.664 137.991 7.80267 137.627 8.08C137.28 8.34 137.107 8.66933 137.107 9.068C137.107 9.44933 137.167 9.75267 137.289 9.978C137.427 10.186 137.635 10.368 137.913 10.524C138.346 10.7493 138.866 10.9487 139.473 11.122C140.079 11.278 140.53 11.408 140.825 11.512C141.119 11.5987 141.483 11.7547 141.917 11.98C142.367 12.2053 142.705 12.448 142.931 12.708C143.537 13.3493 143.841 14.1727 143.841 15.178C143.841 16.478 143.364 17.5007 142.411 18.246C141.475 18.974 140.279 19.338 138.823 19.338C136.708 19.338 135.113 19.0693 134.039 18.532V14.918L136.379 14.736V15.984C136.379 16.7467 137.107 17.128 138.563 17.128C140.019 17.128 140.747 16.5993 140.747 15.542C140.747 15.1607 140.617 14.8487 140.357 14.606C140.114 14.3633 139.871 14.1987 139.629 14.112C139.386 14.0253 139.091 13.9387 138.745 13.852C138.415 13.7653 138.086 13.6787 137.757 13.592C137.445 13.5053 137.098 13.3927 136.717 13.254C136.353 13.098 135.945 12.8813 135.495 12.604C134.611 12.032 134.169 11.0787 134.169 9.744C134.169 8.392 134.645 7.352 135.599 6.624C136.552 5.896 137.748 5.532 139.187 5.532C140.643 5.532 142.081 5.87867 143.503 6.572V9.692L141.163 9.874V8.782C141.163 8.34867 140.963 8.054 140.565 7.898ZM147.069 16.088V3.426C147.069 3.14867 147.017 2.958 146.913 2.854C146.826 2.75 146.662 2.68933 146.419 2.672L145.509 2.62V0.461998H150.137V7.456C151.038 6.17333 152.304 5.532 153.933 5.532C155.25 5.532 156.264 5.91333 156.975 6.676C157.703 7.42133 158.067 8.548 158.067 10.056V16.842L159.549 16.92V19H153.361V17.024L154.219 16.946C154.479 16.9113 154.67 16.842 154.791 16.738C154.912 16.6167 154.973 16.4 154.973 16.088V10.732C154.973 9.83067 154.826 9.13733 154.531 8.652C154.254 8.16667 153.699 7.924 152.867 7.924C152.052 7.924 151.394 8.184 150.891 8.704C150.406 9.20667 150.163 9.822 150.163 10.55V16.842L151.645 16.92V19H145.457V17.024L146.315 16.946C146.575 16.9113 146.766 16.842 146.887 16.738C147.008 16.6167 147.069 16.4 147.069 16.088ZM166.434 1.71H173.766C177.51 1.71 179.382 3.15733 179.382 6.052C179.382 7.64667 178.585 8.86 176.99 9.692C178.013 9.952 178.81 10.4287 179.382 11.122C179.971 11.8153 180.266 12.7167 180.266 13.826C180.266 15.5073 179.694 16.79 178.55 17.674C177.423 18.558 175.777 19 173.61 19H166.304V16.894L167.162 16.816C167.665 16.764 167.916 16.5213 167.916 16.088V3.998L166.434 3.92V1.71ZM171.088 11.122V16.556H173.532C175.785 16.556 176.912 15.6373 176.912 13.8C176.912 12.9333 176.626 12.2747 176.054 11.824C175.499 11.356 174.702 11.122 173.662 11.122H171.088ZM171.088 4.102V8.808H173.012C174.087 8.808 174.875 8.59133 175.378 8.158C175.898 7.70733 176.158 7.08333 176.158 6.286C176.158 5.48867 175.898 4.92533 175.378 4.596C174.875 4.26667 174.147 4.102 173.194 4.102H171.088ZM188.445 5.532C189.745 5.532 190.776 5.85267 191.539 6.494C192.301 7.118 192.683 8.002 192.683 9.146C192.683 9.90867 192.518 10.5847 192.189 11.174C191.859 11.746 191.452 12.1967 190.967 12.526C190.481 12.8553 189.892 13.124 189.199 13.332C188.037 13.6787 186.729 13.852 185.273 13.852C185.325 14.7707 185.611 15.516 186.131 16.088C186.651 16.6427 187.448 16.92 188.523 16.92C189.597 16.92 190.672 16.5387 191.747 15.776L192.735 17.882C192.388 18.194 191.799 18.5147 190.967 18.844C190.152 19.1733 189.216 19.338 188.159 19.338C186.044 19.338 184.493 18.7573 183.505 17.596C182.517 16.4173 182.023 14.8053 182.023 12.76C182.023 10.7147 182.586 8.99867 183.713 7.612C184.839 6.22533 186.417 5.532 188.445 5.532ZM187.249 11.486C187.89 11.3647 188.479 11.1133 189.017 10.732C189.554 10.3333 189.823 9.86533 189.823 9.328C189.823 8.27067 189.303 7.742 188.263 7.742C187.292 7.742 186.547 8.132 186.027 8.912C185.507 9.67467 185.221 10.5933 185.169 11.668C185.931 11.6507 186.625 11.59 187.249 11.486ZM206.186 6.442V16.114C206.186 16.3913 206.23 16.582 206.316 16.686C206.42 16.79 206.594 16.8507 206.836 16.868L207.668 16.92V19H203.534V17.492L203.456 17.466C202.59 18.714 201.402 19.338 199.894 19.338C198.126 19.338 196.818 18.7747 195.968 17.648C195.119 16.5213 194.694 14.9787 194.694 13.02C194.694 10.6627 195.266 8.82533 196.41 7.508C197.554 6.19067 199.27 5.532 201.558 5.532C203.032 5.532 204.574 5.83533 206.186 6.442ZM203.17 14.866V8.132C202.685 7.90667 202.018 7.794 201.168 7.794C200.007 7.794 199.166 8.262 198.646 9.198C198.126 10.134 197.866 11.3733 197.866 12.916C197.866 15.724 198.768 17.128 200.57 17.128C201.333 17.128 201.957 16.9027 202.442 16.452C202.928 15.984 203.17 15.4553 203.17 14.866ZM222.536 16.946V19H218.324V17.31C217.371 18.662 215.967 19.338 214.112 19.338C211.426 19.338 210.082 17.8387 210.082 14.84V8.834C210.082 8.366 209.866 8.12333 209.432 8.106L208.6 8.054V5.922H213.176V14.164C213.176 15.0827 213.306 15.776 213.566 16.244C213.826 16.712 214.364 16.946 215.178 16.946C215.993 16.946 216.643 16.6947 217.128 16.192C217.631 15.6893 217.882 15.0827 217.882 14.372V8.886C217.882 8.60867 217.83 8.418 217.726 8.314C217.64 8.19267 217.475 8.12333 217.232 8.106L216.4 8.054V5.922H220.976V16.114C220.976 16.3913 221.02 16.582 221.106 16.686C221.193 16.7727 221.366 16.8333 221.626 16.868L222.536 16.946ZM226.217 3.166H227.907V5.922H231.365L231.105 8.106H227.907V14.944C227.907 15.7067 228.045 16.244 228.323 16.556C228.6 16.8507 229.025 16.998 229.597 16.998C230.186 16.998 230.775 16.816 231.365 16.452L232.145 18.454C231.278 19.0607 230.177 19.364 228.843 19.364C228.063 19.364 227.404 19.26 226.867 19.052C226.329 18.8613 225.931 18.6447 225.671 18.402C225.411 18.1593 225.211 17.804 225.073 17.336C224.934 16.868 224.856 16.504 224.839 16.244C224.821 15.9667 224.813 15.568 224.813 15.048V8.106H222.967L223.227 6.208C224.041 6.13867 224.657 5.85267 225.073 5.35C225.489 4.83 225.87 4.102 226.217 3.166ZM242.699 18.506V16.53C241.746 17.882 240.342 18.558 238.487 18.558C235.801 18.558 234.457 17.0587 234.457 14.06V8.834C234.457 8.366 234.241 8.12333 233.807 8.106L232.975 8.054V5.922H237.551V13.384C237.551 14.3027 237.681 14.996 237.941 15.464C238.201 15.932 238.739 16.166 239.553 16.166C240.368 16.166 241.018 15.9147 241.503 15.412C242.006 14.9093 242.257 14.3027 242.257 13.592V8.886C242.257 8.59133 242.205 8.392 242.101 8.288C242.015 8.16667 241.85 8.106 241.607 8.106L240.775 8.054V5.922H245.351V18.506C245.351 20.6033 244.84 22.1373 243.817 23.108C242.812 24.0787 241.278 24.564 239.215 24.564C237.17 24.564 235.575 24.278 234.431 23.706V20.092L236.901 19.884V21.132C236.901 21.6 237.118 21.912 237.551 22.068C237.985 22.2413 238.583 22.328 239.345 22.328C241.581 22.328 242.699 21.054 242.699 18.506Z" fill="#DAB08E"/>
</svg>
